<svg version="1.0" xmlns="http://www.w3.org/2000/svg"
 width="500.000000pt" height="500.000000pt" viewBox="0 0 500.000000 500.000000"
 preserveAspectRatio="xMidYMid meet" style="height: 40px; width: 40px;">

<g transform="translate(0.000000,500.000000) scale(0.100000,-0.100000)"
fill="#000000" stroke="none">
<path d="M2650 4978 c0 -3 9 -31 20 -64 26 -74 64 -226 82 -324 8 -48 13 -151
12 -285 0 -178 -4 -226 -23 -315 -70 -331 -210 -586 -460 -843 -97 -100 -318
-287 -339 -287 -15 0 -92 104 -137 184 -71 128 -125 346 -125 509 0 42 -3 77
-6 77 -7 0 -23 -17 -128 -140 -257 -300 -573 -786 -705 -1086 -62 -140 -128
-336 -164 -484 -81 -331 -76 -673 12 -934 118 -347 343 -589 711 -765 314
-150 631 -211 1094 -211 670 0 1127 142 1424 442 244 246 407 608 453 1007 16
140 6 550 -16 691 -42 268 -117 554 -206 780 -65 167 -231 501 -339 680 -199
330 -523 739 -860 1084 -134 137 -300 294 -300 284z"/>
</g>
</svg>
