<?xml version="1.0" encoding="utf-8"?>
<!-- Generator: Adobe Illustrator 24.0.0, SVG Export Plug-In . SVG Version: 6.00 Build 0)  -->
<svg version="1.1" id="Layer_1" xmlns="http://www.w3.org/2000/svg" xmlns:xlink="http://www.w3.org/1999/xlink" x="0px" y="0px"
	 viewBox="0 0 841.89 595.28" style="enable-background:new 0 0 841.89 595.28;" xml:space="preserve">
<style type="text/css">
	.st0{fill:#D85F37;stroke:#E7DBBE;stroke-width:5;stroke-miterlimit:10;}
	.st1{fill:#E7DBBE;}
	.st2{fill:#203B2D;}
</style>
<circle class="st0" cx="264.96" cy="282.92" r="108"/>
<polygon class="st1" points="159.33,310.04 167.44,298.62 198.69,278.92 207.08,280.64 225.6,260.08 242.39,251.8 273.93,266.93 
	298.53,254.08 320.81,270.36 340.49,276.92 370.58,314.04 348.01,299.19 346.85,307.47 328.33,288.34 319.65,296.62 319.36,282.92 
	304.31,274.93 296.21,263.22 281.45,286.06 264.96,282.92 256.86,299.76 245.57,297.77 212.58,314.04 218.95,303.48 250.78,282.92 
	272.49,277.21 249.04,265.5 244.41,259.22 228.5,282.92 218.08,280.35 210.26,296.34 192.61,293.77 "/>
<path class="st2" d="M323.89-140.84l-0.27,0.22c0.11,0.1,0.21,0.19,0.32,0.29C323.92-140.51,323.9-140.68,323.89-140.84z"/>
<path class="st2" d="M323.94-140.33c-0.11-0.1-0.21-0.19-0.32-0.29l0.27-0.22C323.9-140.68,323.92-140.51,323.94-140.33z"/>
<path class="st2" d="M321.04,347.91c-2.04-6.77-14.63-13.15-14.63-13.15l-5.21,3.86l4.63-9.95c-0.29-6.48-8.61-5.9-8.61-5.9
	c-6.29,2.13-7.74-1.45-7.74-1.45l17.41-66.46c1.23-0.89,1.75-1.99,1.9-2.74c0.16-0.8,0.3-2.45-0.16-3.93l2.89-11.03
	c1.94-2.99,0-5.12,0-5.12c-3.29-0.58-3.48,2.8-3.48,2.8l-2.83,10.53c-0.17-0.02-0.36-0.02-0.56-0.02c-4.71,0.07-5.87,3.23-5.87,3.23
	l-2.38,0.03c-1.94-3.58-5.42-0.87-5.42-0.87l-4.84,0.3l-10.83-11.22l0.09-2.81c4.64,0.78,6.1-0.77,6.1-0.77l0.09-4.16l3,0.1v-5.32
	l1.64-0.1v-2.8c4.64-1.74,0.67-3.87,0.67-3.87l-8.51-5.8v-5.8c-15.67-8.13-23.02-5.71-23.02-5.71c-6.96,0.68-5.61,16.35-5.61,16.35
	c-6.68-1.74-7.25,3.29-7.25,3.29l-11.9,36.66c-1.42,10.51,11.48,10.19,11.48,10.19c-7.49,7.48-3.36,16.51-3.36,16.51
	c1.16,0.52-0.26,24.11-0.26,24.11c-6.96,9.42-6.06,22.44-6.06,22.44c-0.26,5.68-3.49,7.61-3.49,7.61c-4.51,3.87-2.45,7.87-2.45,7.87
	l8.8,6.8c-1.39,0.68-2.1,1.27-2.1,1.27l-14.44-0.91c-8.96-6.06-11.61,5.93-11.61,5.93c-3.1,9.55,9.09,8.23,9.09,8.23
	c3.96,1.74,29.31-4.26,29.31-4.26c2.9,5.12,10.83,1.74,10.83,1.74c1.45-0.97,10.64-0.68,10.64-0.68c2.52-0.48,6.48-13.15,6.48-13.15
	c2.33,1.64,0,9.96,0,9.96l12.77,6.39c9.68-5.8,17.03-5.13,17.03-5.13c7.64-0.39,2.33-10.64,2.33-10.64
	c-2.64-1.62-3.87-4.47-4.44-6.81c9.46,9.08,12.46,19.54,12.46,19.54l5.65-1.42C327.01,360.58,321.04,347.91,321.04,347.91z
	 M273.76,325.28c-0.43,4.93-10.43,6.87-10.43,6.87l0.64,10.18c-8-2.19-9.68,8.93-9.68,8.93c-2.75-0.94-5.26-1.42-7.5-1.61
	c-0.76-3-5.59-3.71-5.59-3.71c-3.09-5.8,0-14.05,0-14.05l10.83-25.67l3.23-8.77c1.8-9.16,8.32-8.83,8.32-8.83
	c12.31,0.77,9.61,4.64,9.61,4.64c-3.29,11.41-9.29,16.57-9.29,16.57c-3.86,5.93,0,7.61,0,7.61l10.13,7.62
	C273.86,325.2,273.76,325.28,273.76,325.28z M284.84,321.31c-0.36-0.3-0.78-0.47-1.27-0.54c-0.04-0.11-0.06-0.17-0.06-0.17
	c-3.35-0.19-3.74-2.26-3.74-2.26c-5.49-5.99-2.77-9.35-2.77-9.35L289,289.33c3.74-7.61-3.42-10.32-3.42-10.32l-16.64-6.77
	c-4.19-0.39-2.32-4.19-2.32-4.19l6.25-9.28l13.41,0.58c1.81,3.29,5.68,2.58,7.29,2.26s5.61-5.42,5.61-5.42
	c1.17,0.14,2.2,0.17,3.11,0.11L284.84,321.31z M300.54,340.85l0.2-0.17c0.01,0.12,0.02,0.25,0.04,0.39
	C300.7,340.99,300.62,340.92,300.54,340.85z"/>
<line class="st2" x1="115.79" y1="-88.15" x2="124.72" y2="-85.09"/>
<path class="st2" d="M323.94-140.33c-0.11-0.1-0.21-0.19-0.32-0.29l0.27-0.22C323.9-140.68,323.92-140.51,323.94-140.33z"/>
</svg>
